<svg id="Layer_1" data-name="Layer 1" xmlns="http://www.w3.org/2000/svg" viewBox="0 0 214 55"><defs><style>.cls-1{fill:#868f5d;}.cls-2{fill:#283940;}.cls-3{fill:#fff;}</style></defs><polygon class="cls-1" points="20.73 43.37 0 7.13 6.21 7.13 8.74 11.65 8.74 11.65 29.43 47.9 23.21 47.9 20.73 43.37"/><polygon class="cls-2" points="20.73 43.37 29.43 47.9 0.02 47.9 20.71 11.65 8.74 11.65 0 7.13 29.43 7.13 8.72 43.37 20.73 43.37"/><path class="cls-3" d="M65.27,7.1l-14.44,25H63.65V36H43.88L58.42,11H46.26V7.1Z"/><path class="cls-3" d="M150.51,7.1l-14.44,25h12.82V36H129.12l14.54-25H131.5V7.1Z"/><path class="cls-3" d="M85,36,95.49,7.1H98.9L109.42,36h-4.31L97.19,12.68,89.29,36Z"/><path class="cls-3" d="M180.22,36.27a9.61,9.61,0,0,1-7.39-2.81c-1.75-1.87-2.62-4.52-2.62-7.93V7.1h4V25.67a7,7,0,0,0,1.57,4.88,6.59,6.59,0,0,0,8.9,0,6.94,6.94,0,0,0,1.58-4.88V7.1h4V25.53c0,3.41-.88,6.06-2.64,7.93A9.66,9.66,0,0,1,180.22,36.27Z"/><path class="cls-3" d="M214,7.35V36.23h-4V7.35Z"/><path class="cls-3" d="M44.32,47.71,45.14,42h.09l2.31,4.72L49.83,42h.09l.82,5.75h-.56l-.56-4.11-2,4.11h-.15l-2-4.14-.56,4.14Z"/><path class="cls-3" d="M56.71,42h.66l1.45,2.37L60.25,42h.66l-1.8,3v2.75h-.56V45Z"/><path class="cls-3" d="M74.65,42h.56v2.41h2.9V42h.57v5.75h-.57V44.94h-2.9v2.77h-.56Z"/><path class="cls-3" d="M88.07,41.82a3,3,0,1,1,.05,6,3,3,0,0,1-3-3,3.11,3.11,0,0,1,.39-1.53,3,3,0,0,1,1.08-1.11A2.86,2.86,0,0,1,88.07,41.82Zm0,.56A2.4,2.4,0,0,0,86,43.61a2.5,2.5,0,0,0-.32,1.25,2.36,2.36,0,0,0,.71,1.73,2.29,2.29,0,0,0,1.69.71A2.35,2.35,0,0,0,89.32,47a2.26,2.26,0,0,0,.88-.88,2.56,2.56,0,0,0,.32-1.26,2.42,2.42,0,0,0-.32-1.23,2.31,2.31,0,0,0-.89-.89A2.37,2.37,0,0,0,88.1,42.38Z"/><path class="cls-3" d="M97.29,47.71,98.11,42h.09l2.31,4.72L102.8,42h.09l.82,5.75h-.56l-.56-4.11-2,4.11h-.14l-2-4.14-.56,4.14Z"/><path class="cls-3" d="M110.14,42h3.25v.57h-2.68v1.8h2.66v.56h-2.66v2.26h2.66v.56h-3.23Z"/><path class="cls-3" d="M126.93,47.71l.81-5.75h.09l2.31,4.72L132.43,42h.09l.82,5.75h-.56l-.56-4.11-2,4.11h-.14l-2-4.14-.55,4.14Z"/><path class="cls-3" d="M139.32,42H140l1.45,2.37L142.86,42h.65l-1.8,3v2.75h-.56V45Z"/><path class="cls-3" d="M162.55,43l-.45.35a2.42,2.42,0,0,0-.89-.74,2.57,2.57,0,0,0-1.14-.25,2.52,2.52,0,0,0-1.26.33,2.31,2.31,0,0,0-.9.88,2.51,2.51,0,0,0-.32,1.26,2.35,2.35,0,0,0,.72,1.75,2.43,2.43,0,0,0,1.79.7,2.5,2.5,0,0,0,2-.94l.45.34a2.84,2.84,0,0,1-1.06.85,3.28,3.28,0,0,1-1.42.3,2.93,2.93,0,0,1-2.35-1A3.06,3.06,0,0,1,157,44.8a2.88,2.88,0,0,1,.88-2.12,3,3,0,0,1,2.19-.86,3.11,3.11,0,0,1,1.44.32A2.75,2.75,0,0,1,162.55,43Z"/><path class="cls-3" d="M169,42h.57v2.41h2.89V42H173v5.75h-.57V44.94h-2.89v2.77H169Z"/><path class="cls-3" d="M182.42,41.82A3,3,0,0,1,184.58,47a3,3,0,0,1-5.12-2.12,3,3,0,0,1,.4-1.53,2.88,2.88,0,0,1,1.08-1.11A2.84,2.84,0,0,1,182.42,41.82Zm0,.56a2.4,2.4,0,0,0-2.07,1.23,2.4,2.4,0,0,0-.32,1.25,2.35,2.35,0,0,0,.7,1.73,2.3,2.3,0,0,0,1.69.71,2.39,2.39,0,0,0,1.23-.33,2.32,2.32,0,0,0,.88-.88,2.56,2.56,0,0,0,.31-1.26,2.42,2.42,0,0,0-.31-1.23,2.38,2.38,0,0,0-.89-.89A2.4,2.4,0,0,0,182.44,42.38Z"/><path class="cls-3" d="M191.82,42h.57v5.75h-.57Z"/><path class="cls-3" d="M204.29,43l-.45.35a2.42,2.42,0,0,0-.89-.74,2.64,2.64,0,0,0-2.4.08,2.31,2.31,0,0,0-.9.88,2.51,2.51,0,0,0-.32,1.26,2.35,2.35,0,0,0,.72,1.75,2.43,2.43,0,0,0,1.79.7,2.5,2.5,0,0,0,2-.94l.45.34a2.84,2.84,0,0,1-1.06.85,3.28,3.28,0,0,1-1.42.3,2.93,2.93,0,0,1-2.35-1,3.06,3.06,0,0,1-.73-2.05,2.88,2.88,0,0,1,.88-2.12,3,3,0,0,1,2.19-.86,3.11,3.11,0,0,1,1.44.32A2.75,2.75,0,0,1,204.29,43Z"/><path class="cls-3" d="M210.74,42H214v.57h-2.69v1.8H214v.56h-2.67v2.26H214v.56h-3.24Z"/></svg>