<svg id="Layer_1" data-name="Layer 1" xmlns="http://www.w3.org/2000/svg" viewBox="0 0 1500 386"><defs><style>.cls-1{fill:#868f5d;}.cls-2{fill:#283940;}.cls-3{fill:#fff;}</style></defs><polygon class="cls-1" points="145.32 315.08 0 61 43.5 61 61.29 92.75 61.29 92.75 206.31 346.81 162.68 346.81 145.32 315.08"/><polygon class="cls-2" points="145.3 315.08 206.31 346.81 0.15 346.81 145.17 92.75 61.29 92.75 0 61 206.28 61 61.15 315.08 145.3 315.08"/><path class="cls-3" d="M457.51,60.81,356.28,236.18h89.83v27H307.56l102-175.36H324.23v-27Z"/><path class="cls-3" d="M1055,60.81,953.75,236.18h89.85v27H905L1007,87.82H921.71v-27Z"/><path class="cls-3" d="M595.57,263.18,669.3,60.81h24L767,263.18H736.72L681.27,99.91,625.84,263.18Z"/><path class="cls-3" d="M1263.2,265.26q-33.42,0-51.81-19.69T1193,190V60.81h28.08V191q0,22.1,11,34.22t31.09,12.12q20.23,0,31.3-12.12T1305.56,191V60.81h28.09V190q0,35.91-18.45,55.6T1263.2,265.26Z"/><path class="cls-3" d="M1499.76,62.6V265h-28V62.6Z"/><path class="cls-3" d="M310.67,345.49l5.71-40.3H317l16.2,33.06,16-33.06h.64l5.73,40.3h-3.91l-3.93-28.82L333.7,345.49h-1l-14.25-29-3.91,29Z"/><path class="cls-3" d="M397.53,305.19h4.58l10.19,16.62,10-16.62h4.61l-12.62,21v19.26h-3.93V326.23Z"/><path class="cls-3" d="M523.22,305.19h4v16.9h20.28v-16.9h4v40.3h-4V326H527.2v19.46h-4Z"/><path class="cls-3" d="M617.34,304.17a21.27,21.27,0,0,1,15.16,36.17,20,20,0,0,1-14.83,6.16,20.9,20.9,0,0,1-21.06-21,21.65,21.65,0,0,1,2.78-10.76,20.47,20.47,0,0,1,18-10.58Zm.18,3.92a16.29,16.29,0,0,0-8.38,2.33A16.73,16.73,0,0,0,603,316.7a17.65,17.65,0,0,0-2.22,8.8,16.54,16.54,0,0,0,4.92,12.13,16.13,16.13,0,0,0,11.87,4.95,16.94,16.94,0,0,0,8.58-2.27,16.24,16.24,0,0,0,6.16-6.23,17.66,17.66,0,0,0,2.21-8.77,17.27,17.27,0,0,0-2.21-8.68,17.25,17.25,0,0,0-14.74-8.54Z"/><path class="cls-3" d="M682,345.49l5.71-40.3h.64l16.2,33.06,16-33.06h.64l5.73,40.3H723l-3.93-28.82L705,345.49h-1l-14.26-29-3.91,29Z"/><path class="cls-3" d="M772,305.19h22.82v3.94H776v12.63h18.68v3.95H776v15.83h18.68v3.95H772Z"/><path class="cls-3" d="M889.67,345.49l5.7-40.3H896l16.19,33.06,16-33.06h.64l5.73,40.3h-3.9l-3.93-28.82L912.7,345.49h-1l-14.25-29-3.91,29Z"/><path class="cls-3" d="M976.52,305.19h4.58l10.2,16.62,10-16.62h4.6l-12.62,21v19.26h-3.92V326.23Z"/><path class="cls-3" d="M1139.37,312.67l-3.14,2.43a17.38,17.38,0,0,0-6.24-5.19,18.09,18.09,0,0,0-8-1.76,17.59,17.59,0,0,0-8.83,2.31,16.63,16.63,0,0,0-6.29,6.22,17.34,17.34,0,0,0-2.23,8.78,16.59,16.59,0,0,0,5,12.3,17.19,17.19,0,0,0,12.61,4.93,17.65,17.65,0,0,0,14-6.63l3.14,2.41a20,20,0,0,1-7.43,5.93,23.07,23.07,0,0,1-10,2.1q-10.44,0-16.49-7a21.42,21.42,0,0,1-5.06-14.36,20.07,20.07,0,0,1,6.13-14.89,21,21,0,0,1,15.37-6,22.28,22.28,0,0,1,10.07,2.24A19.62,19.62,0,0,1,1139.37,312.67Z"/><path class="cls-3" d="M1184.52,305.19h4v16.9h20.28v-16.9h4v40.3h-4V326H1188.5v19.46h-4Z"/><path class="cls-3" d="M1278.64,304.17a21.27,21.27,0,0,1,15.16,36.17A20,20,0,0,1,1279,346.5a20.9,20.9,0,0,1-21.06-21,21.65,21.65,0,0,1,2.78-10.76,20.47,20.47,0,0,1,18-10.58Zm.18,3.92a16.29,16.29,0,0,0-8.38,2.33,16.73,16.73,0,0,0-6.19,6.28,17.65,17.65,0,0,0-2.22,8.8,16.54,16.54,0,0,0,4.92,12.13,16.13,16.13,0,0,0,11.87,4.95,16.94,16.94,0,0,0,8.58-2.27,16.17,16.17,0,0,0,6.16-6.23,17.66,17.66,0,0,0,2.21-8.77,17.27,17.27,0,0,0-2.21-8.68,17.25,17.25,0,0,0-14.74-8.54Z"/><path class="cls-3" d="M1344.52,305.19h4v40.3h-4Z"/><path class="cls-3" d="M1431.94,312.67l-3.14,2.43a17.22,17.22,0,0,0-6.24-5.19,18.07,18.07,0,0,0-8-1.76,17.56,17.56,0,0,0-8.83,2.31,16.58,16.58,0,0,0-6.3,6.22,17.34,17.34,0,0,0-2.23,8.78,16.59,16.59,0,0,0,5,12.3,17.21,17.21,0,0,0,12.61,4.93,17.65,17.65,0,0,0,14-6.63l3.14,2.41a20,20,0,0,1-7.43,5.93,23.06,23.06,0,0,1-10,2.1q-10.45,0-16.5-7A21.42,21.42,0,0,1,1393,325.1a20.07,20.07,0,0,1,6.13-14.89,21,21,0,0,1,15.37-6,22.35,22.35,0,0,1,10.08,2.24A19.59,19.59,0,0,1,1431.94,312.67Z"/><path class="cls-3" d="M1477.17,305.19H1500v3.94h-18.85v12.63h18.69v3.95h-18.69v15.83h18.69v3.95h-22.67Z"/></svg>